<svg width="14" height="14" viewBox="0 0 14 14" fill="none" xmlns="http://www.w3.org/2000/svg">
<path d="M2.1875 7H3.0625C3.54543 7 3.9375 7.39207 3.9375 7.875V11.375C3.9375 11.8579 3.54543 12.25 3.0625 12.25H2.1875C1.70457 12.25 1.3125 11.8579 1.3125 11.375V7.875C1.3125 7.39207 1.70457 7 2.1875 7V7" fill="#98999C"/>
<path d="M6.5625 4.375H7.4375C7.92043 4.375 8.3125 4.76707 8.3125 5.25V11.375C8.3125 11.8579 7.92043 12.25 7.4375 12.25H6.5625C6.07957 12.25 5.6875 11.8579 5.6875 11.375V5.25C5.6875 4.76707 6.07957 4.375 6.5625 4.375V4.375" fill="#98999C"/>
<path d="M10.9375 1.75H11.8125C12.2954 1.75 12.6875 2.14207 12.6875 2.625V11.375C12.6875 11.8579 12.2954 12.25 11.8125 12.25H10.9375C10.4546 12.25 10.0625 11.8579 10.0625 11.375V2.625C10.0625 2.14207 10.4546 1.75 10.9375 1.75V1.75" fill="#98999C" fill-opacity="0.4"/>
</svg>
